<svg width="33" height="32" viewBox="0 0 33 32" fill="none" xmlns="http://www.w3.org/2000/svg">
<path d="M13.25 29.8125C12.2812 29.8125 11.474 29.4271 10.8281 28.6562L2.76562 18.8906C2.48438 18.5677 2.28646 18.2552 2.17188 17.9531C2.05729 17.651 2 17.3385 2 17.0156C2 16.276 2.24479 15.6667 2.73438 15.1875C3.23438 14.6979 3.85938 14.4531 4.60938 14.4531C5.44271 14.4531 6.13542 14.7917 6.6875 15.4688L13.1875 23.5156L25.9531 3.34375C26.276 2.85417 26.6094 2.51042 26.9531 2.3125C27.3073 2.10417 27.7396 2 28.25 2C29 2 29.6198 2.23958 30.1094 2.71875C30.599 3.19792 30.8438 3.80208 30.8438 4.53125C30.8438 4.80208 30.7969 5.08333 30.7031 5.375C30.6094 5.66667 30.4635 5.96875 30.2656 6.28125L15.7188 28.5469C15.1458 29.3906 14.3229 29.8125 13.25 29.8125Z" fill="white"/>
<path fill-rule="evenodd" clip-rule="evenodd" d="M10.0616 29.2985L10.057 29.2929L2.00249 19.537C1.67151 19.1552 1.40309 18.746 1.23688 18.3078C1.07934 17.8925 1 17.4598 1 17.0156C1 16.0309 1.33675 15.1562 2.03475 14.473C2.73594 13.7864 3.61851 13.4531 4.60938 13.4531C5.75958 13.4531 6.73111 13.9398 7.46252 14.8368L7.46542 14.8404L13.0886 21.8018L25.1132 2.80103L25.1184 2.79316C25.4883 2.2323 25.9241 1.75228 26.45 1.44826C26.9901 1.13171 27.6057 1 28.25 1C29.2343 1 30.1138 1.32384 30.8088 2.00408C31.504 2.68443 31.8438 3.55241 31.8438 4.53125C31.8438 4.91858 31.7766 5.30323 31.6552 5.68101C31.5308 6.06786 31.3446 6.44654 31.1104 6.8163L31.1067 6.82228L16.5511 29.1013L16.5461 29.1086C15.7758 30.243 14.6337 30.8125 13.25 30.8125C11.9727 30.8125 10.8891 30.2862 10.0616 29.2985ZM26.9531 2.3125C26.6094 2.51042 26.276 2.85417 25.9531 3.34375L13.1875 23.5156L6.6875 15.4688C6.13542 14.7917 5.44271 14.4531 4.60938 14.4531C3.85938 14.4531 3.23438 14.6979 2.73438 15.1875C2.24479 15.6667 2 16.276 2 17.0156C2 17.3385 2.05729 17.651 2.17188 17.9531C2.28646 18.2552 2.48438 18.5677 2.76562 18.8906L10.8281 28.6562C11.474 29.4271 12.2812 29.8125 13.25 29.8125C14.3229 29.8125 15.1458 29.3906 15.7188 28.5469L30.2656 6.28125C30.4635 5.96875 30.6094 5.66667 30.7031 5.375C30.7969 5.08333 30.8438 4.80208 30.8438 4.53125C30.8438 3.80208 30.599 3.19792 30.1094 2.71875C29.6198 2.23958 29 2 28.25 2C27.7396 2 27.3073 2.10417 26.9531 2.3125Z" fill="#191919"/>
</svg>
