<svg width="30" height="28" viewBox="0 0 30 28" fill="none" xmlns="http://www.w3.org/2000/svg">
<path d="M12.2344 27.8906C11.2656 27.8906 10.4583 27.5052 9.8125 26.7344L1.75 16.9688C1.46875 16.6458 1.27083 16.3333 1.15625 16.0312C1.04167 15.7292 0.984375 15.4167 0.984375 15.0938C0.984375 14.3542 1.22917 13.7448 1.71875 13.2656C2.21875 12.776 2.84375 12.5312 3.59375 12.5312C4.42708 12.5312 5.11979 12.8698 5.67188 13.5469L12.1719 21.5938L24.9375 1.42188C25.2604 0.932292 25.5938 0.588542 25.9375 0.390625C26.2917 0.182292 26.724 0.078125 27.2344 0.078125C27.9844 0.078125 28.6042 0.317708 29.0938 0.796875C29.5833 1.27604 29.8281 1.88021 29.8281 2.60938C29.8281 2.88021 29.7812 3.16146 29.6875 3.45312C29.5938 3.74479 29.4479 4.04688 29.25 4.35938L14.7031 26.625C14.1302 27.4688 13.3073 27.8906 12.2344 27.8906Z" fill="white"/>
<path d="M9.8125 26.7344L9.04133 27.371L9.04598 27.3766L9.8125 26.7344ZM1.75 16.9688L2.52115 16.3321L2.51275 16.3219L2.50408 16.312L1.75 16.9688ZM1.71875 13.2656L2.41821 13.9803L2.41838 13.9801L1.71875 13.2656ZM5.67188 13.5469L6.4498 12.9185L6.44689 12.9149L5.67188 13.5469ZM12.1719 21.5938L11.394 22.2221L12.2707 23.3075L13.0169 22.1285L12.1719 21.5938ZM24.9375 1.42188L24.1027 0.87128L24.0975 0.879151L24.0925 0.887119L24.9375 1.42188ZM25.9375 0.390625L26.4365 1.25729L26.4445 1.25256L25.9375 0.390625ZM29.0938 0.796875L28.3943 1.51154L29.0938 0.796875ZM29.25 4.35938L30.0872 4.90632L30.091 4.9004L30.0948 4.89443L29.25 4.35938ZM14.7031 26.625L15.5304 27.1868L15.5354 27.1794L15.5403 27.1719L14.7031 26.625ZM12.2344 26.8906C11.5742 26.8906 11.0432 26.6461 10.579 26.0922L9.04598 27.3766C9.8735 28.3643 10.9571 28.8906 12.2344 28.8906V26.8906ZM10.5836 26.0977L2.52115 16.3321L0.978854 17.6054L9.04135 27.371L10.5836 26.0977ZM2.50408 16.312C2.27672 16.0509 2.15269 15.8386 2.09125 15.6766L0.221252 16.3859C0.388974 16.8281 0.660785 17.2407 0.995919 17.6255L2.50408 16.312ZM2.09125 15.6766C2.01962 15.4878 1.98438 15.2954 1.98438 15.0938H-0.015625C-0.015625 15.5379 0.063715 15.9706 0.221252 16.3859L2.09125 15.6766ZM1.98438 15.0938C1.98438 14.5994 2.13716 14.2554 2.41821 13.9803L1.01929 12.551C0.321178 13.2342 -0.015625 14.1089 -0.015625 15.0938H1.98438ZM2.41838 13.9801C2.71719 13.6875 3.08461 13.5312 3.59375 13.5312V11.5312C2.60289 11.5312 1.72031 11.8645 1.01912 12.5511L2.41838 13.9801ZM3.59375 13.5312C4.11021 13.5312 4.5241 13.7217 4.89686 14.1788L6.44689 12.9149C5.71548 12.0179 4.74396 11.5312 3.59375 11.5312V13.5312ZM4.89396 14.1752L11.394 22.2221L12.9498 20.9654L6.44979 12.9185L4.89396 14.1752ZM13.0169 22.1285L25.7825 1.95663L24.0925 0.887119L11.3269 21.059L13.0169 22.1285ZM25.7723 1.97247C26.0472 1.55563 26.2768 1.34919 26.4365 1.25725L25.4385 -0.475997C24.9107 -0.172105 24.4736 0.308955 24.1027 0.87128L25.7723 1.97247ZM26.4445 1.25256C26.6119 1.15411 26.8594 1.07812 27.2344 1.07812V-0.921875C26.5885 -0.921875 25.9715 -0.789528 25.4305 -0.471309L26.4445 1.25256ZM27.2344 1.07812C27.7501 1.07812 28.1102 1.23345 28.3943 1.51154L29.7932 0.0822062C29.0982 -0.598037 28.2187 -0.921875 27.2344 -0.921875V1.07812ZM28.3943 1.51154C28.6783 1.78953 28.8281 2.12988 28.8281 2.60938H30.8281C30.8281 1.63053 30.4883 0.762554 29.7932 0.0822062L28.3943 1.51154ZM28.8281 2.60938C28.8281 2.76371 28.8015 2.94156 28.7355 3.14712L30.6395 3.75913C30.761 3.38136 30.8281 2.99671 30.8281 2.60938H28.8281ZM28.7355 3.14712C28.6723 3.3436 28.5668 3.56909 28.4052 3.82432L30.0948 4.89443C30.329 4.52466 30.5152 4.14598 30.6395 3.75913L28.7355 3.14712ZM28.4128 3.81243L13.866 26.0781L15.5403 27.1719L30.0872 4.90632L28.4128 3.81243ZM13.8758 26.0632C13.5003 26.6163 12.9965 26.8906 12.2344 26.8906V28.8906C13.6181 28.8906 14.7601 28.3212 15.5304 27.1868L13.8758 26.0632Z" fill="black"/>
</svg>
