<svg width="30" height="30" viewBox="0 0 30 30" fill="none" xmlns="http://www.w3.org/2000/svg">
<path d="M2.67599 27.1719C2.3739 26.8698 2.17078 26.5156 2.06661 26.1094C1.97286 25.6927 1.97807 25.2865 2.08224 24.8906C2.1864 24.4844 2.37911 24.1406 2.66036 23.8594L11.5822 14.9219L2.66036 6C2.37911 5.71875 2.1864 5.375 2.08224 4.96875C1.98849 4.5625 1.98849 4.15625 2.08224 3.75C2.1864 3.34375 2.38432 2.98958 2.67599 2.6875C2.97807 2.375 3.33224 2.17188 3.73849 2.07812C4.15515 1.98438 4.56661 1.98438 4.97286 2.07812C5.37911 2.17188 5.72807 2.36458 6.01974 2.65625L14.9416 11.5625L23.8479 2.65625C24.1395 2.36458 24.4885 2.17188 24.8947 2.07812C25.301 1.97396 25.702 1.97396 26.0979 2.07812C26.5041 2.18229 26.8635 2.38542 27.176 2.6875C27.4781 2.98958 27.6812 3.34375 27.7854 3.75C27.8895 4.15625 27.8895 4.5625 27.7854 4.96875C27.6916 5.36458 27.4989 5.71354 27.2072 6.01562L18.301 14.9219L27.2072 23.8438C27.4989 24.1354 27.6916 24.4844 27.7854 24.8906C27.8791 25.2969 27.8739 25.7031 27.7697 26.1094C27.676 26.5156 27.4781 26.8698 27.176 27.1719C26.8739 27.474 26.5197 27.6719 26.1135 27.7656C25.7072 27.8698 25.301 27.875 24.8947 27.7812C24.4885 27.6875 24.1395 27.4896 23.8479 27.1875L14.9416 18.2812L6.01974 27.2031C5.72807 27.4844 5.37911 27.6719 4.97286 27.7656C4.57703 27.8698 4.17078 27.8698 3.75411 27.7656C3.34786 27.6719 2.98849 27.474 2.67599 27.1719Z" fill="white"/>
<path fill-rule="evenodd" clip-rule="evenodd" d="M1.97487 27.885L1.96888 27.879C1.54256 27.4527 1.24749 26.941 1.09795 26.3577L1.09426 26.3434L1.091 26.3289C0.963868 25.7639 0.968387 25.1959 1.11437 24.6391C1.26074 24.0704 1.53905 23.5665 1.95325 23.1523L10.1686 14.9225L1.95325 6.70711C1.5383 6.29215 1.25972 5.78712 1.11357 5.21712L1.11057 5.2054L1.10784 5.19361C0.979949 4.6394 0.979949 4.07935 1.10784 3.52514L1.11057 3.51335L1.11357 3.50162C1.26083 2.92734 1.54474 2.41946 1.95658 1.99291C2.38692 1.54773 2.91089 1.24283 3.51363 1.10373L3.51897 1.1025C4.0783 0.976652 4.64168 0.975417 5.19772 1.10373C5.78422 1.23908 6.30064 1.52317 6.72622 1.94852L14.941 10.1489L23.1408 1.94914C23.5636 1.52632 24.0761 1.24299 24.658 1.1065C25.2202 0.964312 25.7894 0.963447 26.3493 1.11025C26.9286 1.25934 27.4393 1.55118 27.871 1.96851L27.8771 1.9744L27.8831 1.98039C28.3094 2.40671 28.6045 2.91842 28.754 3.50162C28.8992 4.06789 28.9 4.64197 28.7563 5.20831C28.619 5.78088 28.3366 6.28561 27.9266 6.71022L27.9205 6.71653L19.7146 14.9225L27.9143 23.1366C28.34 23.5623 28.6243 24.079 28.7598 24.6658C28.8888 25.225 28.8822 25.7896 28.7414 26.3461C28.6032 26.9348 28.3114 27.4507 27.8831 27.879C27.4548 28.3073 26.9388 28.5991 26.3502 28.7373C25.7936 28.8781 25.2291 28.8847 24.6699 28.7556C24.0769 28.6188 23.5588 28.3253 23.1351 27.889L14.9416 19.6955L6.72041 27.9167L6.71387 27.923C6.29148 28.3303 5.78398 28.6021 5.21256 28.7366C4.65348 28.881 4.08413 28.8775 3.52035 28.7379C2.93306 28.6007 2.41607 28.3115 1.98096 27.8909L1.97487 27.885ZM3.75411 27.7656C4.17078 27.8698 4.57703 27.8698 4.97286 27.7656C5.37911 27.6719 5.72807 27.4844 6.01974 27.2031L14.9416 18.2812L23.8479 27.1875C24.1395 27.4896 24.4885 27.6875 24.8947 27.7812C25.301 27.875 25.7072 27.8698 26.1135 27.7656C26.5197 27.6719 26.8739 27.474 27.176 27.1719C27.4781 26.8698 27.676 26.5156 27.7697 26.1094C27.8739 25.7031 27.8791 25.2969 27.7854 24.8906C27.6916 24.4844 27.4989 24.1354 27.2072 23.8438L18.301 14.9219L27.2072 6.01562C27.4989 5.71354 27.6916 5.36458 27.7854 4.96875C27.8895 4.5625 27.8895 4.15625 27.7854 3.75C27.6812 3.34375 27.4781 2.98958 27.176 2.6875C26.8635 2.38542 26.5041 2.18229 26.0979 2.07812C25.702 1.97396 25.301 1.97396 24.8947 2.07812C24.4885 2.17187 24.1395 2.36458 23.8479 2.65625L14.9416 11.5625L6.01974 2.65625C5.72807 2.36458 5.37911 2.17187 4.97286 2.07812C4.56661 1.98437 4.15515 1.98437 3.73849 2.07812C3.33224 2.17187 2.97807 2.375 2.67599 2.6875C2.38432 2.98958 2.1864 3.34375 2.08224 3.75C1.98849 4.15625 1.98849 4.5625 2.08224 4.96875C2.1864 5.375 2.37911 5.71875 2.66036 6L11.5822 14.9219L2.66036 23.8594C2.37911 24.1406 2.1864 24.4844 2.08224 24.8906C1.97807 25.2865 1.97286 25.6927 2.06661 26.1094C2.17078 26.5156 2.3739 26.8698 2.67599 27.1719C2.98849 27.474 3.34786 27.6719 3.75411 27.7656Z" fill="#191919"/>
</svg>
