<svg width="27" height="27" viewBox="0 0 27 27" fill="none" xmlns="http://www.w3.org/2000/svg">
<path d="M1.65625 25.9844C1.35417 25.6823 1.15104 25.3281 1.04688 24.9219C0.953125 24.5052 0.958333 24.099 1.0625 23.7031C1.16667 23.2969 1.35938 22.9531 1.64062 22.6719L10.5625 13.7344L1.64062 4.8125C1.35938 4.53125 1.16667 4.1875 1.0625 3.78125C0.96875 3.375 0.96875 2.96875 1.0625 2.5625C1.16667 2.15625 1.36458 1.80208 1.65625 1.5C1.95833 1.1875 2.3125 0.984375 2.71875 0.890625C3.13542 0.796875 3.54688 0.796875 3.95312 0.890625C4.35938 0.984375 4.70833 1.17708 5 1.46875L13.9219 10.375L22.8281 1.46875C23.1198 1.17708 23.4688 0.984375 23.875 0.890625C24.2812 0.786458 24.6823 0.786458 25.0781 0.890625C25.4844 0.994792 25.8438 1.19792 26.1562 1.5C26.4583 1.80208 26.6615 2.15625 26.7656 2.5625C26.8698 2.96875 26.8698 3.375 26.7656 3.78125C26.6719 4.17708 26.4792 4.52604 26.1875 4.82812L17.2812 13.7344L26.1875 22.6562C26.4792 22.9479 26.6719 23.2969 26.7656 23.7031C26.8594 24.1094 26.8542 24.5156 26.75 24.9219C26.6562 25.3281 26.4583 25.6823 26.1562 25.9844C25.8542 26.2865 25.5 26.4844 25.0938 26.5781C24.6875 26.6823 24.2812 26.6875 23.875 26.5938C23.4688 26.5 23.1198 26.3021 22.8281 26L13.9219 17.0938L5 26.0156C4.70833 26.2969 4.35938 26.4844 3.95312 26.5781C3.55729 26.6823 3.15104 26.6823 2.73438 26.5781C2.32812 26.4844 1.96875 26.2865 1.65625 25.9844Z" fill="white"/>
<path d="M1.65625 25.9844L0.949143 26.6915L0.955135 26.6975L0.961228 26.7034L1.65625 25.9844ZM1.04688 24.9219L0.0712652 25.1414L0.0745239 25.1559L0.0782111 25.1702L1.04688 24.9219ZM1.0625 23.7031L2.02959 23.9576L2.03116 23.9515L1.0625 23.7031ZM1.64062 22.6719L2.34773 23.379L2.34835 23.3784L1.64062 22.6719ZM10.5625 13.7344L11.2702 14.4409L11.9761 13.7338L11.2696 13.0273L10.5625 13.7344ZM1.0625 3.78125L0.0881088 4.00611L0.0908301 4.0179L0.0938361 4.02962L1.0625 3.78125ZM1.0625 2.5625L0.0938361 2.31412L0.0908301 2.32585L0.0881088 2.33764L1.0625 2.5625ZM1.65625 1.5L0.937262 0.804978L0.936849 0.805406L1.65625 1.5ZM2.71875 0.890625L2.49923 -0.0849996L2.49389 -0.083766L2.71875 0.890625ZM5 1.46875L4.29289 2.17586L4.29351 2.17648L5 1.46875ZM13.9219 10.375L13.2154 11.0827L13.9225 11.7886L14.629 11.0821L13.9219 10.375ZM23.875 0.890625L24.0999 1.86502L24.1117 1.86229L24.1234 1.85929L23.875 0.890625ZM25.0781 0.890625L24.8236 1.85772L24.8298 1.85929L25.0781 0.890625ZM26.1562 1.5L26.8634 0.792893L26.8574 0.786901L26.8513 0.781012L26.1562 1.5ZM26.7656 3.78125L25.797 3.53288L25.7947 3.54181L25.7925 3.55078L26.7656 3.78125ZM26.1875 4.82812L26.8946 5.53523L26.9008 5.52903L26.9069 5.52272L26.1875 4.82812ZM17.2812 13.7344L16.5741 13.0273L15.8677 13.7338L16.5735 14.4409L17.2812 13.7344ZM26.1875 22.6562L25.4798 23.3627L25.4804 23.3634L26.1875 22.6562ZM26.75 24.9219L25.7813 24.6735L25.7783 24.6852L25.7756 24.697L26.75 24.9219ZM25.0938 26.5781L24.8689 25.6037L24.8571 25.6065L24.8454 25.6095L25.0938 26.5781ZM22.8281 26L23.5475 25.3054L23.5414 25.2991L23.5352 25.2929L22.8281 26ZM13.9219 17.0938L14.629 16.3866L13.9219 15.6795L13.2148 16.3866L13.9219 17.0938ZM5 26.0156L5.69414 26.7355L5.70068 26.7292L5.70711 26.7227L5 26.0156ZM3.95312 26.5781L3.72827 25.6037L3.71339 25.6072L3.69863 25.611L3.95312 26.5781ZM2.73438 26.5781L2.97691 25.608L2.96809 25.6058L2.95923 25.6037L2.73438 26.5781ZM2.36336 25.2773C2.1855 25.0994 2.07433 24.9028 2.01554 24.6735L0.0782111 25.1702C0.227751 25.7535 0.522829 26.2652 0.949143 26.6915L2.36336 25.2773ZM2.02248 24.7024C1.96235 24.4351 1.968 24.1916 2.02957 23.9576L0.0954254 23.4486C-0.0513313 24.0063 -0.0560966 24.5753 0.0712652 25.1414L2.02248 24.7024ZM2.03116 23.9515C2.09334 23.709 2.20019 23.5265 2.34773 23.379L0.933518 21.9648C0.518561 22.3797 0.239989 22.8848 0.0938361 23.4548L2.03116 23.9515ZM2.34835 23.3784L11.2702 14.4409L9.85477 13.0279L0.9329 21.9654L2.34835 23.3784ZM11.2696 13.0273L2.34773 4.10539L0.933518 5.51961L9.85539 14.4415L11.2696 13.0273ZM2.34773 4.10539C2.20019 3.95785 2.09334 3.77538 2.03116 3.53288L0.0938361 4.02962C0.239989 4.59962 0.518561 5.10465 0.933518 5.51961L2.34773 4.10539ZM2.03689 3.55639C1.97729 3.2981 1.97729 3.04565 2.03689 2.78736L0.0881088 2.33764C-0.0397863 2.89185 -0.0397863 3.4519 0.0881088 4.00611L2.03689 3.55639ZM2.03116 2.81088C2.09224 2.57266 2.20417 2.3722 2.37565 2.19459L0.936849 0.805406C0.525 1.23196 0.24109 1.73984 0.0938361 2.31412L2.03116 2.81088ZM2.37524 2.19502C2.54907 2.0152 2.73385 1.91342 2.94361 1.86502L2.49389 -0.083766C1.89115 0.0553279 1.3676 0.359799 0.937262 0.804978L2.37524 2.19502ZM2.93826 1.86623C3.21227 1.80458 3.47181 1.80583 3.72827 1.86502L4.17798 -0.083766C3.62194 -0.212083 3.05856 -0.210833 2.49924 -0.0849848L2.93826 1.86623ZM3.72827 1.86502C3.95398 1.9171 4.13526 2.01822 4.29289 2.17586L5.70711 0.761643C5.28141 0.335946 4.76477 0.0516458 4.17798 -0.083766L3.72827 1.86502ZM4.29351 2.17648L13.2154 11.0827L14.6284 9.66727L5.70649 0.761024L4.29351 2.17648ZM14.629 11.0821L23.5352 2.17586L22.121 0.761643L13.2148 9.66789L14.629 11.0821ZM23.5352 2.17586C23.6929 2.01822 23.8741 1.9171 24.0999 1.86502L23.6501 -0.083766C23.0634 0.0516458 22.5467 0.335946 22.121 0.761643L23.5352 2.17586ZM24.1234 1.85929C24.3688 1.79635 24.5967 1.79799 24.8236 1.8577L25.3326 -0.0764494C24.7678 -0.225073 24.1937 -0.223431 23.6266 -0.0780387L24.1234 1.85929ZM24.8298 1.85929C25.0617 1.91877 25.2687 2.03289 25.4612 2.21899L26.8513 0.781012C26.4188 0.362945 25.907 0.0708127 25.3265 -0.0780387L24.8298 1.85929ZM25.4491 2.20711C25.627 2.38496 25.7382 2.58158 25.797 2.81088L27.7343 2.31412C27.5847 1.73092 27.2897 1.21921 26.8634 0.792893L25.4491 2.20711ZM25.797 2.81088C25.8593 3.05418 25.8593 3.28957 25.797 3.53288L27.7343 4.02962C27.8802 3.46043 27.8802 2.88332 27.7343 2.31412L25.797 2.81088ZM25.7925 3.55078C25.7415 3.76613 25.6393 3.95622 25.4681 4.13353L26.9069 5.52272C27.319 5.09586 27.6022 4.58803 27.7387 4.01172L25.7925 3.55078ZM25.4804 4.12102L16.5741 13.0273L17.9884 14.4415L26.8946 5.53523L25.4804 4.12102ZM16.5735 14.4409L25.4798 23.3627L26.8952 21.9498L17.989 13.0279L16.5735 14.4409ZM25.4804 23.3634C25.638 23.521 25.7391 23.7023 25.7912 23.928L27.74 23.4783C27.6046 22.8915 27.3203 22.3748 26.8946 21.9491L25.4804 23.3634ZM25.7912 23.928C25.8488 24.1773 25.846 24.4213 25.7813 24.6735L27.7187 25.1702C27.8623 24.6099 27.87 24.0414 27.74 23.4783L25.7912 23.928ZM25.7756 24.697C25.7251 24.916 25.6221 25.1043 25.4491 25.2773L26.8634 26.6915C27.2945 26.2603 27.5874 25.7403 27.7244 25.1467L25.7756 24.697ZM25.4491 25.2773C25.2761 25.4503 25.0878 25.5532 24.8689 25.6037L25.3186 27.5525C25.9122 27.4155 26.4322 27.1226 26.8634 26.6915L25.4491 25.2773ZM24.8454 25.6095C24.5932 25.6741 24.3492 25.6769 24.0999 25.6194L23.6501 27.5681C24.2133 27.6981 24.7818 27.6905 25.3421 27.5468L24.8454 25.6095ZM24.0999 25.6194C23.8835 25.5694 23.7059 25.4694 23.5475 25.3054L22.1087 26.6946C22.5337 27.1347 23.054 27.4306 23.6501 27.5681L24.0999 25.6194ZM23.5352 25.2929L14.629 16.3866L13.2148 17.8009L22.121 26.7071L23.5352 25.2929ZM13.2148 16.3866L4.29289 25.3085L5.70711 26.7227L14.629 17.8009L13.2148 16.3866ZM4.30586 25.2958C4.14858 25.4474 3.96329 25.5495 3.72827 25.6037L4.17798 27.5525C4.75546 27.4193 5.26809 27.1463 5.69414 26.7355L4.30586 25.2958ZM3.69863 25.611C3.47369 25.6702 3.23863 25.6734 2.97691 25.608L2.49184 27.5483C3.06346 27.6912 3.64089 27.6943 4.20762 27.5452L3.69863 25.611ZM2.95923 25.6037C2.7377 25.5526 2.53896 25.4468 2.35127 25.2654L0.961228 26.7034C1.39854 27.1261 1.91855 27.4161 2.50952 27.5525L2.95923 25.6037Z" fill="black"/>
</svg>
